<svg xmlns="http://www.w3.org/2000/svg" xml:space="preserve" width="1000" height="1000"><path d="M279 375v162.656l-56.917 43.938.171.012L153 635.239V46.968C153 38.766 158.897 32 167.101 32h96.981C272.284 32 279 38.766 279 46.968v59.898c60-49 136.831-78.397 220.365-78.397 191.711 0 346.847 154.569 346.847 345.295C846.212 563.312 693 717.208 503 719.072V593.767s-.082-.012-.047-.012c2.779-.024 5.461-.097 8.215-.229 116.826-5.279 209.845-101.635 209.845-219.76 0-60.789-24.678-115.816-64.525-155.628a220 220 0 0 0-19.749-17.525 202 202 0 0 0-6.282-4.751.2.2 0 0 1-.053-.037c-36.336-26.521-81.092-42.169-129.518-42.169-60.775 0-115.792 24.633-155.592 64.457a224 224 0 0 0-14.205 15.625 207 207 0 0 0-3.296 4.09 233 233 0 0 0-6.351 8.491 177 177 0 0 0-2.73 3.933 218.5 218.5 0 0 0-17.296 30.431 208 208 0 0 0-3.272 7.336 209 209 0 0 0-3.933 9.983c-.313.842-.625 1.696-.926 2.55a231 231 0 0 0-1.72 5.1 95 95 0 0 0-.998 3.187 212 212 0 0 0-4.078 15.131c-1.444 6.207-2.835 12.521-3.726 18.92C280.79 356.875 279 368.315 279 375M279 697.988v259.044c0 8.202-6.716 13.968-14.918 13.968h-96.981c-8.203 0-14.101-5.766-14.101-13.968v-161.21l114.369-88.765.395-.374.453-.36z"/><path d="M454 562.41v401.959c0 4.185-6.266 6.631-14.504 6.631h-96.969c-8.239 0-15.527-2.446-15.527-6.631V660.822l4.179-3.212 97.91-75.787z"/></svg>