<svg xmlns="http://www.w3.org/2000/svg" xml:space="preserve" width="1000" height="1000"><path d="M845.287 374.507C845.287 560.203 696 711.394 512 717.1V592.713c117-4.814 208.973-100.702 208.973-218.206 0-11.026-.912-21.836-2.54-32.428l106.814-82.919c12.956 36.05 20.04 74.849 20.04 115.347M283 375v122.565l-75.251 57.604L155 595.3V374.507C155 185.19 309.837 31.772 500.045 31.772c96.996 0 184.966 39.913 247.604 104.105l-98.77 76.782c-38.792-35.17-90.085-56.573-146.577-56.573C381.689 156.087 283 254.387 283 375M283 680.744V968H155V778.479zM460 542.807V968H335V640.47l83.005-64.715z"/></svg>