<?xml version="1.0" encoding="utf-8"?>
<!-- Generator: Adobe Illustrator 16.0.0, SVG Export Plug-In . SVG Version: 6.00 Build 0)  -->
<!DOCTYPE svg PUBLIC "-//W3C//DTD SVG 1.1//EN" "http://www.w3.org/Graphics/SVG/1.1/DTD/svg11.dtd">
<svg version="1.1" id="Layer_1" xmlns="http://www.w3.org/2000/svg" xmlns:xlink="http://www.w3.org/1999/xlink" x="0px" y="0px"
	 width="1000px" height="1000px" viewBox="0 0 1000 1000" enable-background="new 0 0 1000 1000" xml:space="preserve">
<g>
	<path fill="#FFFFFF" d="M279,375v162.656l-56.917,43.938l0.171,0.012L153,635.239V46.968C153,38.766,158.897,32,167.101,32h96.981
		C272.284,32,279,38.766,279,46.968v59.898c60-49,136.831-78.397,220.365-78.397c191.711,0,346.847,154.569,346.847,345.295
		C846.212,563.312,693,717.208,503,719.072V593.767c0,0-0.082-0.012-0.047-0.012c2.779-0.024,5.461-0.097,8.215-0.229
		c116.826-5.279,209.845-101.635,209.845-219.76c0-60.789-24.678-115.816-64.525-155.628c-6.219-6.231-12.821-12.076-19.749-17.525
		c-2.068-1.623-4.154-3.211-6.282-4.751c-0.025-0.012-0.041-0.023-0.053-0.037c-36.336-26.521-81.092-42.169-129.518-42.169
		c-60.775,0-115.792,24.633-155.592,64.457c-4.968,4.98-9.719,10.187-14.205,15.625c-1.119,1.347-2.214,2.718-3.296,4.09
		c-2.177,2.778-4.293,5.604-6.351,8.491c-0.926,1.299-1.84,2.61-2.73,3.933c-5.713,8.408-10.862,17.236-15.372,26.413
		c-0.661,1.335-1.298,2.671-1.924,4.018c-1.143,2.429-2.226,4.871-3.272,7.336c-1.396,3.296-2.706,6.615-3.933,9.983
		c-0.313,0.842-0.625,1.696-0.926,2.55c-0.589,1.684-1.167,3.392-1.72,5.1c-0.349,1.058-0.686,2.116-0.998,3.187
		c-1.54,4.968-2.899,10.019-4.078,15.131c-1.444,6.207-2.835,12.521-3.726,18.92C280.79,356.875,279,368.315,279,375z"/>
	<path fill="#FFFFFF" d="M279,697.988v259.044c0,8.202-6.716,13.968-14.918,13.968h-96.981c-8.203,0-14.101-5.766-14.101-13.968
		v-161.21l114.369-88.765l0.395-0.374l0.453-0.36L279,697.988z"/>
	<path fill="#FFFFFF" d="M454,562.41v401.959c0,4.185-6.266,6.631-14.504,6.631h-96.969c-8.239,0-15.527-2.446-15.527-6.631V660.822
		l4.179-3.212l97.91-75.787L454,562.41z"/>
</g>
</svg>
